<svg width="20" height="20" viewBox="0 0 20 20" fill="none" xmlns="http://www.w3.org/2000/svg">
<path fill-rule="evenodd" clip-rule="evenodd" d="M5 1.25V1C5 0.447715 5.44772 0 6 0H6.5C7.05228 0 7.5 0.447715 7.5 1V1.25H12.5V1C12.5 0.447715 12.9477 0 13.5 0H14C14.5523 0 15 0.447715 15 1V1.25H18.75C19.4404 1.25 20 1.80964 20 2.5V18.75C20 19.4404 19.4404 20 18.75 20H1.25C0.559644 20 0 19.4404 0 18.75V2.5C0 1.80964 0.559644 1.25 1.25 1.25H5ZM5 3.75H2.5V6.25H17.5V3.75H15V4C15 4.55228 14.5523 5 14 5H13.5C12.9477 5 12.5 4.55228 12.5 4V3.75H7.5V4C7.5 4.55228 7.05228 5 6.5 5H6C5.44772 5 5 4.55228 5 4V3.75ZM17.5 8.75H2.5V17.5H17.5V8.75Z" fill="#676A75"/>
</svg>
