<svg width="16" height="16" viewBox="0 0 16 16" fill="none" xmlns="http://www.w3.org/2000/svg">
<path fill-rule="evenodd" clip-rule="evenodd" d="M4 1C4 0.447715 4.44772 0 5 0C5.55228 0 6 0.447715 6 1H10C10 0.447715 10.4477 0 11 0C11.5523 0 12 0.447715 12 1H15C15.5523 1 16 1.44772 16 2V15C16 15.5523 15.5523 16 15 16H1C0.447715 16 0 15.5523 0 15V2C0 1.44772 0.447715 1 1 1H4ZM4 3H2V5H14V3H12C12 3.55228 11.5523 4 11 4C10.4477 4 10 3.55228 10 3H6C6 3.55228 5.55228 4 5 4C4.44772 4 4 3.55228 4 3ZM14 7H2V14H14V7Z" fill="white"/>
</svg>
