<svg width="16" height="16" viewBox="0 0 16 16" fill="none" xmlns="http://www.w3.org/2000/svg">
<path fill-rule="evenodd" clip-rule="evenodd" d="M12.763 0.399403C12.5606 0.14367 12.2862 0 12 0C11.7138 0 11.4394 0.14367 11.237 0.399403L8.49099 3.86982C8.20326 4.23346 8.20326 4.74721 8.491 5.11085L8.74175 5.42775C9.14213 5.93373 9.90978 5.93372 10.3101 5.42774L10.921 4.65575L10.8497 13.9924L10.8497 14H9V8C9 7.44772 8.55228 7 8 7C7.44772 7 7 7.44772 7 8V14H5V11C5 10.4477 4.55228 10 4 10C3.44772 10 3 10.4477 3 11V14H1C0.447715 14 0 14.4477 0 15C0 15.5523 0.447715 16 1 16H15C15.5523 16 16 15.5523 16 15C16 14.4477 15.5523 14 15 14H13.0076L13.079 4.65575L13.6899 5.42774C14.0902 5.93372 14.8579 5.93372 15.2582 5.42774L15.509 5.11085C15.7967 4.74721 15.7967 4.23346 15.509 3.86982L12.763 0.399403Z" fill="white"/>
</svg>
